<?xml version="1.0" encoding="utf-8"?>
<!-- Generator: Adobe Illustrator 21.1.0, SVG Export Plug-In . SVG Version: 6.00 Build 0)  -->
<svg version="1.1" id="Layer_1" xmlns="http://www.w3.org/2000/svg" xmlns:xlink="http://www.w3.org/1999/xlink" x="0px" y="0px"
	 viewBox="0 0 180.3 38" style="enable-background:new 0 0 180.3 38;" xml:space="preserve">
<style type="text/css">
	.st0{fill:#FFFFFF;}
	.st1{fill:#4CB6E7;}
	.st2{fill:#42B649;}
</style>
<g>
	<g>
		<path class="st0" d="M33.2,0H4.8C2.2,0,0,2.2,0,4.8v4.5c0,0.5,0.4,0.9,0.9,0.9s0.9-0.4,0.9-0.9V4.8c0-1.6,1.3-3,3-3h28.3
			c1.6,0,3,1.3,3,3v28.3c0,1.6-1.3,3-3,3h-4.7c-0.5,0-0.9,0.4-0.9,0.9S28,38,28.5,38h4.7c2.7,0,4.8-2.2,4.8-4.8V4.8
			C38,2.2,35.8,0,33.2,0z"/>
		<circle class="st0" cx="25.8" cy="6.2" r="0.9"/>
		<circle class="st0" cx="28.8" cy="6.2" r="0.9"/>
		<circle class="st0" cx="31.8" cy="6.2" r="0.9"/>
		<path class="st0" d="M19.6,13.8H0.9c-0.5,0-0.9,0.4-0.9,0.9c0,0.5,0.4,0.9,0.9,0.9h18.6c1.5,0,2.8,1.2,2.8,2.8
			c0,0.7-0.3,1.4-0.8,1.9l-9.8,9.8c-0.4,0.4-0.4,1,0,1.3c0.2,0.2,0.4,0.3,0.7,0.3c0.2,0,0.5-0.1,0.7-0.3l9.8-9.8
			c0.9-0.9,1.4-2,1.4-3.3C24.2,15.9,22.1,13.8,19.6,13.8z"/>
		<path class="st0" d="M23.3,36.1H4.6c-1.5,0-2.8-1.2-2.8-2.8v-0.1c0-0.7,0.3-1.4,0.8-1.9l9.7-9.7c0.4-0.4,0.4-1,0-1.3
			c-0.4-0.4-1-0.4-1.3,0L1.4,30c-0.9,0.9-1.4,2-1.4,3.3v0.1C0,35.9,2.1,38,4.6,38h18.6c0.5,0,0.9-0.4,0.9-0.9S23.8,36.1,23.3,36.1z"
			/>
	</g>
	<g>
		<path class="st0" d="M102.1,38c-2.7,0-4.7-0.6-6-1.7c-0.1-0.1-0.3-0.2-0.4-0.2c-0.2,0-0.3,0.1-0.4,0.2c-1.3,1.1-3.3,1.7-6,1.7
			c-2.1,0-3.9-0.7-5.4-2.2c-1.5-1.5-2.2-3.3-2.2-5.4V16.5c0-0.6,0.5-1.1,1.1-1.1h0c0.6,0,1.1,0.5,1.1,1.1v13.9
			c0,1.5,0.5,2.7,1.5,3.7c1,1,2.3,1.6,3.7,1.6c2.2,0,3.7-0.4,4.5-1.2c0.5-0.5,0.8-1.2,0.8-2.2V16.5c0-0.6,0.5-1.1,1.1-1.1h0
			c0.6,0,1.1,0.5,1.1,1.1v15.9c0,1,0.3,1.7,0.8,2.2c0.8,0.8,2.3,1.2,4.5,1.2c1.5,0,2.7-0.5,3.8-1.6c1-1,1.5-2.3,1.5-3.7V16.5
			c0-0.6,0.5-1.1,1.1-1.1h0c0.6,0,1.1,0.5,1.1,1.1v13.9c0,2.1-0.7,3.9-2.2,5.4C106,37.3,104.2,38,102.1,38z"/>
		<path class="st0" d="M133.2,38c-0.6,0-1.1-0.5-1.1-1.1v-2.1l-1,0.9c-1.8,1.6-3.9,2.3-6.2,2.3c-2.6,0-4.9-0.9-6.7-2.8
			c-1.8-1.9-2.8-4.1-2.8-6.7v-3.6c0-2.6,0.9-4.9,2.8-6.7c1.9-1.9,4.1-2.8,6.7-2.8c2.5,0,4.8,0.9,6.6,2.7c1.8,1.8,2.8,3.9,2.9,6.4
			l0,12.4C134.3,37.5,133.8,38,133.2,38z M124.8,17.6c-2,0-3.7,0.7-5.1,2.1c-1.4,1.4-2.1,3.1-2.1,5.1v3.6c0,2,0.7,3.7,2.1,5.1
			c1.4,1.4,3.1,2.1,5.1,2.1c2,0,3.7-0.7,5.1-2.1c1.4-1.4,2.1-3.1,2.1-5.1v-3.6c0-2-0.7-3.7-2.1-5.1
			C128.5,18.3,126.8,17.6,124.8,17.6z"/>
		<path class="st0" d="M157.8,38c-0.6,0-1.1-0.5-1.1-1.1v-2.1l-1,0.9c-1.8,1.6-3.9,2.3-6.2,2.3c-2.6,0-4.9-0.9-6.7-2.8
			c-1.8-1.9-2.8-4.1-2.8-6.7v-3.6c0-2.6,0.9-4.9,2.8-6.7c1.9-1.9,4.1-2.8,6.7-2.8c2.5,0,4.8,0.9,6.6,2.7c1.8,1.8,2.8,3.9,2.9,6.4
			l0,12.4C158.9,37.5,158.4,38,157.8,38z M149.4,17.6c-2,0-3.7,0.7-5.1,2.1c-1.4,1.4-2.1,3.1-2.1,5.1v3.6c0,2,0.7,3.7,2.1,5.1
			c1.4,1.4,3.1,2.1,5.1,2.1c2,0,3.7-0.7,5.1-2.1c1.4-1.4,2.1-3.1,2.1-5.1v-3.6c0-2-0.7-3.7-2.1-5.1
			C153.1,18.3,151.4,17.6,149.4,17.6z"/>
		<path class="st0" d="M165.6,38c-0.6,0-1.1-0.5-1.1-1.1V23.1c0-2.1,0.8-4,2.3-5.5c1.5-1.5,3.4-2.3,5.5-2.3c1.6,0,3.2,0.5,4.5,1.5
			c0.8,0.6,1.4,1.2,1.9,2l0.6,0.9c0,0,0,0,0,0c0,0,0,0,0,0l-1.8,1.2l0,0l-0.6-0.9c-0.4-0.6-0.9-1.1-1.4-1.4c-0.9-0.7-2-1-3.2-1
			c-1.5,0-2.8,0.6-3.9,1.6c-1.1,1.1-1.6,2.4-1.6,3.9v13.7C166.8,37.5,166.3,38,165.6,38L165.6,38z"/>
		<path class="st0" d="M53.9,38c-0.6,0-1.2-0.5-1.2-1.2v0c0,0,0-0.1,0-0.1c0,0,0-0.1,0-0.1c0,0,0-0.1,0-0.1l0,0c0,0,0,0,0,0
			c0,0,0-0.1,0-0.1c0,0,0-0.1,0-0.1c0,0,0.1-0.1,0.1-0.1c0,0,0-0.1,0-0.1l0,0c0,0,0-0.1,0.1-0.1l16.4-16.4l2.6-2.7H53.9
			c-0.6,0-1.2-0.5-1.2-1.2v0c0-0.6,0.5-1.2,1.2-1.2h21c0.6,0,1.2,0.5,1.2,1.2v0c0,0.3-0.2,0.7-0.4,0.9l0,0l-4.5,4.7L56.7,35.6h18.1
			c0.6,0,1.2,0.5,1.2,1.2v0c0,0.6-0.5,1.2-1.2,1.2H53.9z"/>
	</g>
</g>
</svg>
